<svg width="1200" height="630" viewBox="0 0 1200 630" fill="none" xmlns="http://www.w3.org/2000/svg">
  <defs>
    <linearGradient id="bg" x1="120" y1="48" x2="1058" y2="630" gradientUnits="userSpaceOnUse">
      <stop stop-color="#100907"/>
      <stop offset="0.5" stop-color="#1B0F0B"/>
      <stop offset="1" stop-color="#08090D"/>
    </linearGradient>
    <linearGradient id="orange" x1="0" y1="0" x2="1" y2="1">
      <stop stop-color="#FF5A36"/>
      <stop offset="1" stop-color="#FF8B5C"/>
    </linearGradient>
    <linearGradient id="mint" x1="0" y1="0" x2="1" y2="1">
      <stop stop-color="#77F2CC"/>
      <stop offset="1" stop-color="#B8FFE7"/>
    </linearGradient>
    <filter id="glow" x="-20%" y="-20%" width="140%" height="140%">
      <feGaussianBlur stdDeviation="18" result="blur"/>
      <feMerge>
        <feMergeNode in="blur"/>
        <feMergeNode in="SourceGraphic"/>
      </feMerge>
    </filter>
  </defs>

  <rect width="1200" height="630" fill="url(#bg)"/>
  <circle cx="180" cy="120" r="170" fill="#FF5A36" opacity="0.18"/>
  <circle cx="1020" cy="120" r="160" fill="#77F2CC" opacity="0.12"/>
  <path d="M0 400L420 180L560 300L1200 0V630H0V400Z" fill="#FFFFFF" opacity="0.03"/>
  <path d="M0 560L330 440L470 510L1200 180V630H0V560Z" fill="#FF5A36" opacity="0.06"/>

  <g transform="translate(72 64)">
    <rect x="0" y="0" width="600" height="502" rx="28" fill="#161010" fill-opacity="0.78" stroke="#FF8054" stroke-opacity="0.24"/>
    <text x="40" y="72" fill="#F7E7CE" font-family="Arial, Helvetica, sans-serif" font-size="72" font-weight="900" letter-spacing="1">FRAME</text>
    <text x="40" y="146" fill="#F7E7CE" font-family="Arial, Helvetica, sans-serif" font-size="72" font-weight="900" letter-spacing="1">FRENZY</text>
    <text x="42" y="212" fill="#D2AD8B" font-family="Arial, Helvetica, sans-serif" font-size="28" font-weight="600">Solve the puzzle before the video ends.</text>

    <g transform="translate(173 246)">
      <rect x="0" y="0" width="78" height="78" fill="#FF5A36" opacity="0.94"/>
      <rect x="88" y="0" width="78" height="78" fill="#FF8B5C" opacity="0.9"/>
      <rect x="176" y="0" width="78" height="78" fill="#77F2CC" opacity="0.84"/>
      <rect x="0" y="88" width="78" height="78" fill="#D95A2F" opacity="0.96"/>
      <rect x="88" y="88" width="78" height="78" fill="#F7E7CE" opacity="0.92"/>
      <rect x="176" y="88" width="78" height="78" fill="#FFC957" opacity="0.95"/>
      <rect x="0" y="176" width="78" height="78" fill="#7B88FF" opacity="0.88"/>
      <rect x="88" y="176" width="78" height="78" fill="#FF7AA2" opacity="0.88"/>
      <rect x="176" y="176" width="78" height="78" fill="#4658D6" opacity="0.94"/>
      <path d="M88 0H166V78H88V0Z" stroke="#FFF1E0" stroke-opacity="0.35" stroke-width="4"/>
      <path d="M0 88H78V166H0V88Z" stroke="#FFF1E0" stroke-opacity="0.2" stroke-width="4"/>
      <path d="M176 88H254V166H176V88Z" stroke="#FFF1E0" stroke-opacity="0.2" stroke-width="4"/>
      <path d="M88 176H166V254H88V176Z" stroke="#FFF1E0" stroke-opacity="0.2" stroke-width="4"/>
    </g>
  </g>

  <g transform="translate(740 86)">
    <rect x="0" y="0" width="386" height="396" rx="24" fill="#1F110C" fill-opacity="0.9" stroke="#FF8054" stroke-opacity="0.24"/>

    <text x="40" y="92" fill="#F7E7CE" font-family="Arial, Helvetica, sans-serif" font-size="38" font-weight="900">Put the video</text>
    <text x="40" y="139" fill="#F7E7CE" font-family="Arial, Helvetica, sans-serif" font-size="38" font-weight="900">back together</text>

    <text x="40" y="214" fill="#D2AD8B" font-family="Arial, Helvetica, sans-serif" font-size="22" font-weight="600">The footage keeps moving while</text>
    <text x="40" y="246" fill="#D2AD8B" font-family="Arial, Helvetica, sans-serif" font-size="22" font-weight="600">you solve by motion and</text>
    <text x="40" y="278" fill="#D2AD8B" font-family="Arial, Helvetica, sans-serif" font-size="22" font-weight="600">rhythm.</text>

    <rect x="40" y="326" width="310" height="62" rx="10" fill="url(#mint)"/>
    <text x="68" y="364" fill="#082018" font-family="Courier New, monospace" font-size="19" font-weight="700" letter-spacing="1.2">FRAMEFRENZY.GAMES</text>
  </g>
</svg>